# xmcd
#
# Track frame offsets:
#	150
#	14980
#	28837
#	42592
#	56975
#	70532
#	84890
#	100320
#	114677
#	128722
#	142760
#	155955
#
# Disc length: 2287 seconds
#
# Revision: 0
# Processed by: cddbd v1.5.1PL0 Copyright (c) Steve Scherf et al.
# Submitted via: audiograbber 1.83.01
#
DISCID=ab08ed0c
DTITLE=Τσετίνης - Τα καλυτερά μου τραγούδια
DYEAR=1900
DGENRE=
TTITLE0=Ίσως
TTITLE1=Έχω δικαίωμα να σ' αγαπώ
TTITLE2=Σαν δένδρο που μαράθηκες
TTITLE3=Μπορεί
TTITLE4=Απορώ
TTITLE5=Κι ενώ το ήξερα
TTITLE6=Ότι αρχίζει ωραίο
TTITLE7=Στο παλιό το μονοπάτι
TTITLE8=Τα δικά σου τα σπασμένα
TTITLE9=Στην παιδική μου γειτονιά
TTITLE10=Με ποιό δικαίωμα
TTITLE11=Ώρα καλή
EXTD=
EXTT0=
EXTT1=
EXTT2=
EXTT3=
EXTT4=
EXTT5=
EXTT6=
EXTT7=
EXTT8=
EXTT9=
EXTT10=
EXTT11=
PLAYORDER=
